<svg width="131" height="46" viewBox="0 0 131 46" fill="none" xmlns="http://www.w3.org/2000/svg">
<path d="M18.7343 34.8379C17.4478 33.6505 17.0722 31.1559 17.6082 29.3486C18.5376 30.488 19.8254 30.8491 21.1592 31.0526C23.2185 31.3672 25.2408 31.2496 27.1537 30.2994C27.3725 30.1907 27.5748 30.0458 27.8139 29.8995C27.9934 30.425 28.0401 30.9558 27.9774 31.496C27.825 32.8116 27.1765 33.8279 26.145 34.5981C25.7326 34.9063 25.2961 35.1817 24.8702 35.4724C23.5615 36.3651 23.2074 37.4121 23.6992 38.9353C23.7108 38.9724 23.7213 39.0095 23.7477 39.1001C23.0796 38.7982 22.5915 38.3586 22.2196 37.7807C21.8268 37.1706 21.64 36.4959 21.6301 35.7659C21.6252 35.4106 21.6252 35.0521 21.5779 34.7019C21.4623 33.848 21.0652 33.4656 20.3171 33.4435C19.5494 33.4211 18.9421 33.9 18.781 34.6547C18.7687 34.7125 18.7509 34.7697 18.7331 34.837L18.7343 34.8379Z" fill="#17191E"/>
<path d="M11.3913 29.0473C11.3913 29.0473 15.201 27.1738 19.0213 27.1738L21.9017 18.1744C22.0096 17.7392 22.3244 17.4434 22.6799 17.4434C23.0353 17.4434 23.3502 17.7392 23.4581 18.1744L26.3385 27.1738C30.863 27.1738 33.9686 29.0473 33.9686 29.0473C33.9686 29.0473 27.4974 11.2507 27.4848 11.215C27.299 10.6889 26.9855 10.35 26.5628 10.35H18.7976C18.3749 10.35 18.0741 10.6889 17.8757 11.215C17.8617 11.2501 11.3913 29.0473 11.3913 29.0473Z" fill="#17191E"/>
<path d="M51.5579 23.3228C51.5579 24.8998 49.6148 25.8416 46.9245 25.8416C45.1734 25.8416 44.5542 25.4035 44.5542 24.4836C44.5542 23.5199 45.3229 23.0599 47.0737 23.0599C48.654 23.0599 49.999 23.0818 51.5579 23.279V23.3228ZM51.5793 21.3734C50.6184 21.1544 49.1663 21.023 47.4368 21.023C42.3976 21.023 40.0276 22.2276 40.0276 25.0312C40.0276 27.9443 41.6503 29.0614 45.4083 29.0614C48.5899 29.0614 50.7463 28.2509 51.5365 26.2577H51.6644C51.6431 26.7396 51.6217 27.2215 51.6217 27.5938C51.6217 28.6233 51.7926 28.7109 52.6253 28.7109H56.5541C56.3405 28.0976 56.2124 26.3672 56.2124 24.8779C56.2124 23.279 56.2765 22.0743 56.2765 20.4535C56.2765 17.1461 54.3123 15.0435 48.1627 15.0435C45.5151 15.0435 42.5684 15.5034 40.3266 16.1824C40.5399 17.0804 40.839 18.8984 40.9885 20.0811C42.9315 19.1612 45.686 18.767 47.8213 18.767C50.7676 18.767 51.5793 19.4459 51.5793 20.8258V21.3734Z" fill="#17191E"/>
<path d="M62.3591 24.2427C61.8255 24.3084 61.0993 24.3084 60.352 24.3084C59.562 24.3084 58.8361 24.2866 58.3448 24.2208C58.3448 24.3961 58.3235 24.5932 58.3235 24.7684C58.3235 27.5063 60.0957 29.1051 66.3307 29.1051C72.2024 29.1051 74.1027 27.5282 74.1027 24.7465C74.1027 22.1182 72.8431 20.8259 67.2702 20.5412C62.9355 20.344 62.5514 19.8622 62.5514 19.3146C62.5514 18.6794 63.1064 18.3509 66.0103 18.3509C69.0211 18.3509 69.8324 18.767 69.8324 19.6431V19.8403C70.2593 19.8184 71.0282 19.7965 71.8182 19.7965C72.5655 19.7965 73.3768 19.8184 73.8467 19.8622C73.8467 19.665 73.8681 19.4898 73.8681 19.3365C73.8681 16.1168 71.2201 15.0654 66.0958 15.0654C60.3306 15.0654 58.3876 16.4891 58.3876 19.2708C58.3876 21.7677 59.9465 23.3228 65.4767 23.5638C69.5547 23.6952 70.0033 24.1551 70.0033 24.7903C70.0033 25.4693 69.3412 25.776 66.4802 25.776C63.1918 25.776 62.3591 25.316 62.3591 24.3742V24.2427Z" fill="#17191E"/>
<path d="M81.1502 12.6998C79.5916 14.1673 76.7945 15.6348 75.2359 16.0291C75.2572 16.8395 75.2572 18.3289 75.2572 19.1393L76.6877 19.1612C76.6663 20.7163 76.645 22.5999 76.645 23.8484C76.645 26.7615 78.1609 28.9518 82.8797 28.9518C84.8655 28.9518 86.1895 28.7328 87.8335 28.3823C87.6626 27.3091 87.4704 25.6663 87.4063 24.4179C86.4241 24.7464 85.1859 24.9217 83.8192 24.9217C81.9189 24.9217 81.1502 24.396 81.1502 22.8847C81.1502 21.5705 81.1502 20.3439 81.1716 19.205C83.6059 19.2269 86.04 19.2707 87.4704 19.3145C87.4491 18.1756 87.4918 16.5328 87.5558 15.4377C85.4846 15.4815 83.1574 15.5034 81.2357 15.5034C81.257 14.5397 81.2784 13.6198 81.2997 12.6998H81.1502Z" fill="#17191E"/>
<path d="M93.9031 18.4823C93.9244 17.3433 93.9458 16.3796 93.9672 15.4378H89.6752C89.7393 17.3214 89.7393 19.2489 89.7393 22.0744C89.7393 24.8998 89.7179 26.8492 89.6752 28.7109H94.5863C94.5008 27.3968 94.4795 25.1846 94.4795 23.3009C94.4795 20.3221 95.6753 19.4679 98.387 19.4679C99.6469 19.4679 100.544 19.6212 101.334 19.906C101.355 18.7889 101.569 16.6205 101.696 15.6568C100.885 15.4159 99.9883 15.2626 98.8993 15.2626C96.5721 15.2407 94.8639 16.2044 94.0739 18.5042L93.9031 18.4823Z" fill="#17191E"/>
<path d="M115.282 21.9866C115.282 24.3741 113.574 25.4911 110.884 25.4911C108.215 25.4911 106.507 24.4398 106.507 21.9866C106.507 19.5335 108.236 18.6136 110.884 18.6136C113.553 18.6136 115.282 19.5992 115.282 21.9866ZM119.745 21.8771C119.745 17.1242 116.072 14.9996 110.884 14.9996C105.674 14.9996 102.129 17.1242 102.129 21.8771C102.129 26.6082 105.439 29.149 110.862 29.149C116.329 29.149 119.745 26.6082 119.745 21.8771Z" fill="#17191E"/>
</svg>
