<svg width="96" height="20" viewBox="0 0 96 20" fill="none" xmlns="http://www.w3.org/2000/svg">
<g clip-path="url(#clip0_9_33)">
<path d="M63.8178 0.00842285H80.5394V3.21524H73.9061V20.0859H70.5892V3.21524H63.8178V0.00842285Z" fill="black"/>
<path d="M36.3172 0.00842285V3.21524H22.9138V8.37402H33.6928V11.5808H22.9138V16.8791H36.3172V20.0859H19.5972V3.21524H19.5958V0.00842285H36.3172Z" fill="black"/>
<path d="M44.6668 0.0167236H40.3263L55.873 20.0942H60.2261L52.4518 10.0624L60.2137 0.0320415L55.873 0.0390111L50.2787 7.25813L44.6668 0.0167236Z" fill="black"/>
<path d="M49.1208 14.3581L46.9472 11.55L40.3139 20.1095H44.6668L49.1208 14.3581Z" fill="black"/>
<path fill-rule="evenodd" clip-rule="evenodd" d="M19.7134 20.0858L4.14581 0H0V20.0774H3.31665V4.29154L15.5468 20.0858H19.7134Z" fill="black"/>
<path d="M81.2849 19.9632C81.042 19.9632 80.8354 19.8758 80.6624 19.7009C80.4894 19.526 80.4039 19.3143 80.4061 19.0636C80.4039 18.8197 80.4894 18.6103 80.6624 18.4354C80.8354 18.2605 81.042 18.1731 81.2849 18.1731C81.5186 18.1731 81.723 18.2605 81.896 18.4354C82.0715 18.6103 82.1589 18.8197 82.1614 19.0636C82.1589 19.2292 82.1185 19.381 82.0376 19.5168C81.9545 19.6549 81.849 19.763 81.7162 19.8412C81.5859 19.9218 81.4421 19.9632 81.2849 19.9632Z" fill="black"/>
<path d="M86.9458 11.5051H88.4155V17.3885C88.4133 17.9292 88.3008 18.3917 88.0807 18.7805C87.8583 19.1694 87.5503 19.4662 87.1548 19.6756C86.7616 19.8826 86.3008 19.9885 85.7772 19.9885C85.2984 19.9885 84.8694 19.8987 84.4873 19.7239C84.1053 19.549 83.8019 19.2867 83.5795 18.9416C83.3546 18.5964 83.2444 18.1662 83.2444 17.6508H84.7166C84.7188 17.8763 84.7683 18.0718 84.8625 18.2352C84.9568 18.3986 85.0872 18.5228 85.2536 18.6102C85.422 18.6977 85.6154 18.7414 85.8333 18.7414C86.0694 18.7414 86.2716 18.6908 86.4356 18.5872C86.5996 18.486 86.7255 18.3341 86.8132 18.1317C86.8985 17.9315 86.9436 17.683 86.9458 17.3885V11.5051Z" fill="black"/>
<path d="M94.4628 13.8061C94.427 13.4494 94.2696 13.171 93.9955 12.9732C93.7189 12.773 93.3617 12.6741 92.9234 12.6741C92.6156 12.6741 92.3505 12.7224 92.1303 12.8167C91.91 12.9133 91.7392 13.0422 91.6223 13.2055C91.5055 13.3689 91.4471 13.5553 91.4424 13.7647C91.4424 13.9395 91.4829 14.0914 91.5616 14.2179C91.6403 14.3468 91.7458 14.4549 91.883 14.5424C92.0177 14.6321 92.1683 14.7057 92.3325 14.7655C92.4987 14.8254 92.6651 14.876 92.8313 14.9174L93.5976 15.113C93.9055 15.1866 94.2045 15.2856 94.4898 15.4121C94.7751 15.5364 95.0337 15.6951 95.2605 15.8861C95.4876 16.0771 95.6674 16.3071 95.8 16.5764C95.9325 16.8455 96 17.1608 96 17.5243C96 18.0144 95.8787 18.4447 95.6335 18.8174C95.3887 19.1878 95.0359 19.4777 94.5729 19.6871C94.1122 19.8942 93.5549 20 92.8988 20C92.265 20 91.7122 19.8988 91.247 19.6964C90.7797 19.4962 90.4154 19.2016 90.1525 18.8151C89.8896 18.4286 89.7481 17.9569 89.7278 17.4024H91.1842C91.2044 17.6923 91.2943 17.9339 91.4471 18.1294C91.602 18.3227 91.8043 18.4654 92.0516 18.562C92.3011 18.6563 92.5796 18.7047 92.8876 18.7047C93.2089 18.7047 93.4921 18.654 93.7369 18.5551C93.9796 18.4562 94.1706 18.3181 94.3078 18.1387C94.4472 17.9615 94.5169 17.7521 94.5191 17.5128C94.5169 17.2942 94.4538 17.1124 94.3324 16.9698C94.2089 16.8271 94.0381 16.7075 93.82 16.6109C93.6 16.5142 93.3437 16.4268 93.0515 16.3509L92.1213 16.107C91.4493 15.9298 90.9166 15.6606 90.5278 15.2994C90.1369 14.9381 89.9435 14.4595 89.9435 13.859C89.9435 13.3666 90.0738 12.9341 90.337 12.5636C90.5974 12.1932 90.9549 11.9056 91.4066 11.7008C91.8606 11.4937 92.373 11.3925 92.9436 11.3925C93.5235 11.3925 94.0313 11.4937 94.4696 11.7008C94.9077 11.9056 95.2517 12.1909 95.501 12.5544C95.7505 12.9179 95.8809 13.3344 95.8877 13.8061H94.4628Z" fill="black"/>
</g>
<defs>
<clipPath id="clip0_9_33">
<rect width="96" height="20" fill="white"/>
</clipPath>
</defs>
</svg>
